<?xml version="1.0" encoding="UTF-8"?>
<!DOCTYPE svg PUBLIC "-//W3C//DTD SVG 1.1//EN" "http://www.w3.org/Graphics/SVG/1.1/DTD/svg11.dtd">
<!-- Creator: CorelDRAW -->
<svg xmlns="http://www.w3.org/2000/svg" xml:space="preserve" width="512px" height="512px" version="1.1" style="shape-rendering:geometricPrecision; text-rendering:geometricPrecision; image-rendering:optimizeQuality; fill-rule:evenodd; clip-rule:evenodd"
viewBox="0 0 512 512"
 xmlns:xlink="http://www.w3.org/1999/xlink">
 <defs>
  <style type="text/css">
   <![CDATA[
    .fil1 {fill:aqua}
    .fil2 {fill:#F3A766}
    .fil3 {fill:#FF700D}
    .fil0 {fill:#4D4D4D;fill-rule:nonzero}
   ]]>
  </style>
 </defs>
 <g id="Layer_x0020_1">
  <metadata id="CorelCorpID_0Corel-Layer"/>
  <path class="fil0" d="M245 107c-48,0 -93,-17 -105,-22 -14,9 -26,20 -37,32 75,17 210,33 287,-19 -7,-5 -14,-11 -21,-15 -16,11 -44,16 -56,17 -5,24 -38,28 -49,6 -6,1 -12,1 -19,1zm-91 -31c21,7 64,20 107,17 1,-31 44,-35 52,-7 11,-2 30,-5 42,-11 -7,-6 -43,-20 -50,-20 -2,0 -4,0 -6,-2 -14,-3 -28,-4 -43,-4 -37,0 -71,10 -102,27zm206 -15c61,-21 87,-5 97,12 15,24 10,66 -16,120 -24,50 -64,105 -110,150 -19,19 -40,37 -60,53 -1,1 -2,2 -4,2 -33,25 -66,45 -97,57 -2,1 -3,2 -5,2 -23,8 -44,13 -63,13 -22,0 -40,-6 -53,-19 -17,-18 -8,-48 2,-80 2,-7 4,-13 6,-19 -5,-10 -9,-20 -12,-31 -19,38 -52,119 -13,159 30,30 88,17 129,1 15,-6 29,-13 44,-21 1,-1 2,-2 4,-2 47,-26 95,-63 140,-108 91,-91 149,-196 149,-266 0,-51 -35,-75 -87,-69 -25,3 -56,13 -88,30 13,4 25,10 37,16zm-294 308c-8,26 -19,60 -7,72 21,21 59,17 89,7 -34,-18 -62,-46 -82,-79zm100 73c5,-2 10,-5 15,-7 -13,-1 -25,-3 -36,-4l21 11zm-46 -31c23,6 52,10 85,12 12,-7 24,-15 36,-23 -54,1 -115,-6 -147,-15 8,10 16,18 26,26zm-40 -46c17,10 96,25 182,20 19,-15 38,-31 56,-49 -59,11 -111,12 -159,11 -39,-2 -74,-6 -94,-12 4,10 9,20 15,30zm-21 -47c11,6 49,13 101,15 36,1 107,1 175,-15 22,-23 43,-49 60,-75 -10,5 -21,9 -34,12 0,43 -58,53 -75,16 -55,7 -107,8 -154,5 -30,-3 -65,-7 -83,-14 1,19 4,38 10,56zm-24 -69c5,-120 102,-214 221,-214 16,0 32,2 47,5 84,-47 151,-53 186,-17 60,60 -16,185 -17,189 3,14 5,30 5,44 0,120 -98,221 -221,221 -14,0 -28,-2 -44,-5 -2,1 -130,77 -190,18 -58,-58 17,-186 18,-189 -3,-15 -5,-30 -5,-45 0,-2 0,-5 0,-7zm14 -3c6,4 30,11 81,15 29,3 87,5 152,-4 -1,-22 17,-41 40,-41 17,0 31,10 37,25 19,-5 35,-12 50,-19 7,-12 14,-24 19,-36 5,-9 8,-17 12,-26 -1,-1 -2,-3 -3,-4 -92,63 -264,47 -380,43 -4,15 -7,31 -8,47zm13 -61c115,4 282,19 368,-41 -9,-13 -19,-25 -30,-36 -79,56 -223,42 -307,21 -13,17 -24,36 -31,56zm384 -42c18,-64 -6,-90 -70,-72 29,18 52,42 70,72zm-215 318c63,8 124,-14 167,-55 -58,31 -125,29 -129,31 -13,9 -25,17 -38,24zm202 -98c4,-7 8,-14 11,-21 -29,22 -67,38 -115,47 -13,11 -26,22 -39,32 63,-6 113,-26 143,-58zm22 -50c3,-11 6,-23 7,-35 -16,14 -36,25 -60,35 -13,16 -27,31 -43,47 -3,3 -7,7 -10,10 47,-12 81,-30 106,-57zm8 -56c0,-8 -1,-17 -2,-26 -11,19 -24,38 -39,57 17,-9 30,-19 41,-31zm-167 1c2,2 2,4 2,6 4,9 13,16 24,16 33,0 33,-50 0,-50 -15,0 -28,13 -26,28zm-9 -177c-16,0 -16,26 0,26 17,0 17,-26 0,-26z"/>
  <path class="fil1" d="M331 343c-19,19 -40,37 -60,53 -1,1 -2,2 -4,2 -33,25 -66,45 -97,57 -2,1 -3,2 -5,2 -23,8 -44,13 -63,13 -22,0 -40,-6 -53,-19 -17,-18 -8,-48 2,-80 2,-7 4,-13 6,-19 -5,-10 -9,-20 -12,-31 -19,38 -52,119 -13,159 30,30 88,17 129,1 15,-6 29,-13 44,-21 1,-1 2,-2 4,-2 47,-26 95,-63 140,-108 91,-91 149,-196 149,-266 0,-51 -35,-75 -87,-69 -25,3 -56,13 -88,30 13,4 25,10 37,16 61,-21 87,-5 97,12 15,24 10,66 -16,120 -24,50 -64,105 -110,150z"/>
  <path class="fil2" d="M402 313c-13,16 -27,31 -43,47 -3,3 -7,7 -10,10 47,-12 81,-30 106,-57 3,-11 6,-23 7,-35 -16,14 -36,25 -60,35z"/>
  <path class="fil2" d="M422 288c17,-9 30,-19 41,-31 0,-8 -1,-17 -2,-26 -11,19 -24,38 -39,57z"/>
  <path class="fil2" d="M335 318c22,-23 43,-49 60,-75 -10,5 -21,9 -34,12 0,43 -58,53 -75,16 -55,7 -107,8 -154,5 -30,-3 -65,-7 -83,-14 1,19 4,38 10,56 11,6 49,13 101,15 36,1 107,1 175,-15z"/>
  <path class="fil3" d="M322 280c33,0 33,-50 0,-50 -15,0 -28,13 -26,28 2,2 2,4 2,6 4,9 13,16 24,16z"/>
  <path class="fil2" d="M322 216c17,0 31,10 37,25 19,-5 35,-12 50,-19 7,-12 14,-24 19,-36 5,-9 8,-17 12,-26 -1,-1 -2,-3 -3,-4 -92,63 -264,47 -380,43 -4,15 -7,31 -8,47 6,4 30,11 81,15 29,3 87,5 152,-4 -1,-22 17,-41 40,-41z"/>
  <path class="fil2" d="M62 185c115,4 282,19 368,-41 -9,-13 -19,-25 -30,-36 -79,56 -223,42 -307,21 -13,17 -24,36 -31,56z"/>
  <path class="fil2" d="M103 117c75,17 210,33 287,-19 -7,-5 -14,-11 -21,-15 -16,11 -44,16 -56,17 -5,24 -38,28 -49,6 -6,1 -12,1 -19,1 -48,0 -93,-17 -105,-22 -14,9 -26,20 -37,32z"/>
  <path class="fil3" d="M287 81c-16,0 -16,26 0,26 17,0 17,-26 0,-26z"/>
  <path class="fil2" d="M261 93c1,-31 44,-35 52,-7 11,-2 30,-5 42,-11 -7,-6 -43,-20 -50,-20 -2,0 -4,0 -6,-2 -14,-3 -28,-4 -43,-4 -37,0 -71,10 -102,27 21,7 64,20 107,17z"/>
  <path class="fil2" d="M318 336c-59,11 -111,12 -159,11 -39,-2 -74,-6 -94,-12 4,10 9,20 15,30 17,10 96,25 182,20 19,-15 38,-31 56,-49z"/>
  <path class="fil2" d="M241 400c-54,1 -115,-6 -147,-15 8,10 16,18 26,26 23,6 52,10 85,12 12,-7 24,-15 36,-23z"/>
  <path class="fil2" d="M444 342c-29,22 -67,38 -115,47 -13,11 -26,22 -39,32 63,-6 113,-26 143,-58 4,-7 8,-14 11,-21z"/>
  <path class="fil2" d="M398 406c-58,31 -125,29 -129,31 -13,9 -25,17 -38,24 63,8 124,-14 167,-55z"/>
  <path class="fil2" d="M166 442c5,-2 10,-5 15,-7 -13,-1 -25,-3 -36,-4l21 11z"/>
 </g>
</svg>
